# xmcd
#
# Track frame offsets:
#	183
#	11120
#	26590
#	41483
#	54845
#	66223
#	77263
#	90313
#	100288
#	112340
#	124280
#	136555
#	147938
#	159758
#	171703
#	182718
#	194635
#	207130
#	216428
#	228620
#	238238
#	250563
#
# Disc length: 3491 seconds
#
# Revision: 1
# Processed by: cddbd v1.5.1PL0 Copyright (c) Steve Scherf et al.
# Submitted via: audiograbber 1.83.01
#
DISCID=350da116
DTITLE=Lee, Laura - That's How It Is
DYEAR=1991
DGENRE=Soul
TTITLE0=Meet Love Halfway
TTITLE1=I Don't Need You Around
TTITLE2=Stop Giving Your Man Away
TTITLE3=You Need Me
TTITLE4=Are You Doing Me Wrong 
TTITLE5=Need to Belong 
TTITLE6=Dirty Man 
TTITLE7=As Long as I Got You 
TTITLE8=That's How It Is 
TTITLE9=She Will Break Your Heart 
TTITLE10=It's All Wrong But It's Alright 
TTITLE11=It's How You Make It Good 
TTITLE12=Man With Some Backbone 
TTITLE13=Love More Than Pride 
TTITLE14=Wanted: Lover, No Experience Necessary 
TTITLE15=Hang It Up 
TTITLE16=It's Mighty Hard 
TTITLE17=It Ain't What You Do (But How You Do It) 
TTITLE18=Up Tight, Good Man 
TTITLE19=Mama's Got A Good Thing
TTITLE20=Sure As Sin
TTITLE21=Another Man's Woman
EXTD=
EXTT0=
EXTT1=
EXTT2=
EXTT3=
EXTT4=
EXTT5=
EXTT6=
EXTT7=
EXTT8=
EXTT9=
EXTT10=
EXTT11=
EXTT12=
EXTT13=
EXTT14=
EXTT15=
EXTT16=
EXTT17=
EXTT18=
EXTT19=
EXTT20=
EXTT21=
PLAYORDER=
